<?xml version="1.0" encoding="utf-8"?>
<!-- Generator: Adobe Illustrator 25.0.1, SVG Export Plug-In . SVG Version: 6.00 Build 0)  -->
<svg version="1.1" id="Слой_1" xmlns="http://www.w3.org/2000/svg" xmlns:xlink="http://www.w3.org/1999/xlink" x="0px" y="0px"
	 viewBox="0 0 517.2 517.2" style="enable-background:new 0 0 517.2 517.2;" xml:space="preserve">
<style type="text/css">
	.st0{fill:#FDFEFC;}
	.st1{fill:#FFFFFF;}
</style>
<g>
	<path class="st0" d="M310.9,128c1.5,0.4,2.2,0.8,2.2,2.5c0,12.7-0.1,25.3,0,38c0,1.7-0.6,2.2-2.3,2.2c-7.4-0.1-14.7-0.1-22.1,0
		c-5.2,0.1-10.3,0.3-15.1,2.7c-5,2.6-7.5,6.8-8.4,12.1c-1.3,7.8-0.3,15.7-0.5,23.6c-0.1,4,0.1,8-0.1,12c-0.1,2.2,0.7,2.7,2.8,2.7
		c13.4-0.1,26.9,0,40.3,0c3.1,0,3.5,0.3,3.2,3.4c-0.6,6-1.5,11.9-2.3,17.9c-0.8,6.1-1.6,12.1-2.3,18.2c-0.2,1.8-0.4,3.6-0.6,5.4
		c-0.2,1.8-1.1,2.5-3.1,2.5c-11.5-0.1-22.9-0.1-34.4-0.1c-3.5,0-3.6,0.1-3.6,3.7c0,39.4,0,78.8,0,118.2c-16.3,0-32.6,0-48.9,0
		c0-39.2,0-78.4,0-117.7c0-4-0.2-4.2-4.1-4.2c-11.5,0-22.9-0.1-34.4,0c-2.2,0-2.8-0.7-2.7-2.8c0.1-13.8,0.1-27.6,0-41.4
		c0-2.6,1-3.3,3.4-3.3c11.5,0.1,23.1,0,34.6,0.1c2.5,0,3.3-0.8,3.2-3.3c-0.1-11.4-0.1-22.7,0-34.1c0.1-12.7,3-24.7,9.9-35.5
		c4.3-6.8,10.1-12.2,17.2-16.3c8.1-4.7,16.8-7.1,26-7.8C288.7,126.1,307.5,127.2,310.9,128z"/>
</g>
<path class="st1" d="M368,40c29.2,0,56.6,11.4,77.2,32s32,48,32,77.2V368c0,29.2-11.4,56.6-32,77.2s-48,32-77.2,32H149.2
	c-29.2,0-56.6-11.4-77.2-32s-32-48-32-77.2V149.2C40,120,51.4,92.6,72,72s48-32,77.2-32H368 M368,0H149.2C66.8,0,0,66.8,0,149.2V368
	c0,82.4,66.8,149.2,149.2,149.2H368c82.4,0,149.2-66.8,149.2-149.2V149.2C517.2,66.8,450.4,0,368,0L368,0z"/>
</svg>
