<?xml version="1.0" encoding="utf-8"?>
<!-- Generator: Adobe Illustrator 25.0.1, SVG Export Plug-In . SVG Version: 6.00 Build 0)  -->
<svg version="1.1" id="Слой_1" xmlns="http://www.w3.org/2000/svg" xmlns:xlink="http://www.w3.org/1999/xlink" x="0px" y="0px"
	 viewBox="0 0 517.2 517.2" style="enable-background:new 0 0 517.2 517.2;" xml:space="preserve">
<style type="text/css">
	.st0{fill:#FFFFFF;}
	.st1{fill-rule:evenodd;clip-rule:evenodd;fill:#FFFFFF;}
</style>
<g>
	<g>
		<path class="st0" d="M368,40c29.2,0,56.6,11.4,77.2,32c20.6,20.6,32,48,32,77.2V368c0,29.2-11.4,56.6-32,77.2
			c-20.6,20.6-48,32-77.2,32H149.2c-29.2,0-56.6-11.4-77.2-32c-20.6-20.6-32-48-32-77.2V149.2C40,120,51.4,92.6,72,72
			c20.6-20.6,48-32,77.2-32H368 M368,0H149.2C66.8,0,0,66.8,0,149.2V368c0,82.4,66.8,149.2,149.2,149.2H368
			c82.4,0,149.2-66.8,149.2-149.2V149.2C517.2,66.8,450.4,0,368,0L368,0z"/>
	</g>
	<g>
		<path class="st0" d="M258.6,166.7c50.7,0,91.9,41.2,91.9,91.9s-41.2,91.9-91.9,91.9s-91.9-41.2-91.9-91.9S207.9,166.7,258.6,166.7
			 M258.6,126.7c-72.9,0-131.9,59.1-131.9,131.9s59.1,131.9,131.9,131.9s131.9-59.1,131.9-131.9S331.5,126.7,258.6,126.7
			L258.6,126.7z"/>
	</g>
	<g>
		<circle class="st1" cx="398.1" cy="120.8" r="30"/>
	</g>
</g>
</svg>
