<?xml version="1.0" encoding="utf-8"?>
<!-- Generator: Adobe Illustrator 25.0.1, SVG Export Plug-In . SVG Version: 6.00 Build 0)  -->
<svg version="1.1" id="Слой_1" xmlns="http://www.w3.org/2000/svg" xmlns:xlink="http://www.w3.org/1999/xlink" x="0px" y="0px"
	 viewBox="0 0 517.2 517.2" style="enable-background:new 0 0 517.2 517.2;" xml:space="preserve">
<style type="text/css">
	.st0{fill-rule:evenodd;clip-rule:evenodd;fill:#FFFFFF;}
	.st1{fill:#FFFFFF;}
</style>
<g>
	<path class="st0" d="M274.1,356.9c-108.9,0-171-74.6-173.2-198.8h54.4c1.5,91,41.9,129.8,73.5,137.8V158.1h51.4v78.8
		c31.6-3.4,64.3-39.2,75.8-78.8h51c-8.4,48.7-44.2,84.5-69.7,99c25.5,12.2,66.3,43.4,81.9,99.8h-56.7c-11.8-37.7-42.3-67-82.2-70.8
		v70.8H274.1z"/>
	<g>
		<path class="st1" d="M368,40c29.2,0,56.6,11.4,77.2,32c20.6,20.6,32,48,32,77.2V368c0,29.2-11.4,56.6-32,77.2s-48,32-77.2,32
			H149.2c-29.2,0-56.6-11.4-77.2-32c-20.6-20.6-32-48-32-77.2V149.2C40,120,51.4,92.6,72,72c20.6-20.6,48-32,77.2-32H368 M368,0
			H149.2C66.8,0,0,66.8,0,149.2V368c0,82.4,66.8,149.2,149.2,149.2H368c82.4,0,149.2-66.8,149.2-149.2V149.2
			C517.2,66.8,450.4,0,368,0L368,0z"/>
	</g>
</g>
</svg>
