<?xml version="1.0" encoding="utf-8"?>
<!-- Generator: Adobe Illustrator 25.0.1, SVG Export Plug-In . SVG Version: 6.00 Build 0)  -->
<svg version="1.1" id="Слой_1" xmlns="http://www.w3.org/2000/svg" xmlns:xlink="http://www.w3.org/1999/xlink" x="0px" y="0px"
	 viewBox="0 0 120.2 59.4" style="enable-background:new 0 0 120.2 59.4;" xml:space="preserve">
<style type="text/css">
	.st0{fill:#110D0A;}
	.st1{fill:#4B573A;}
</style>
<g>
	<path class="st0" d="M5.5,10.9L5.5,10.9C6.7,9.1,8.6,8.1,11,8.1c3.7,0,6.3,2.2,6.3,7v10.4h-5.5v-8.9c0-2.5-1.1-3.6-3.1-3.6
		c-1.9,0-3.2,1.1-3.2,4.1v8.5H0V0h5.5V10.9z"/>
	<path class="st0" d="M36.8,17.2v1.2H24.7c0.4,2.1,2,3.1,4.3,3.1c2,0,3.8-0.8,4.9-1.5l2,4.2c-1.8,1.1-4.1,2-7,2
		c-5.7,0-9.4-3.5-9.4-8.9c0-5.7,3.7-9,8.9-9C33.5,8.2,36.8,11.1,36.8,17.2z M24.8,15.2h6.7c-0.1-2-1.4-3.1-3.2-3.1
		C26.4,12.1,25,13,24.8,15.2z"/>
	<path class="st0" d="M38.2,17.1c0-5.9,3.6-9,8-9c2.7,0,4.4,1.1,5.5,2.8h0.1V8.7h5.5v16.8h-5.5v-2.3h-0.1c-1.1,1.7-2.8,2.8-5.5,2.8
		C41.8,26.1,38.2,23,38.2,17.1z M51.6,17.1c0-2.4-1.7-3.9-3.9-3.9c-2.2,0-3.9,1.5-3.9,3.9c0,2.4,1.7,3.9,3.9,3.9
		C49.9,21,51.6,19.5,51.6,17.1z"/>
	<path class="st0" d="M66,25.5h-5.5V0H66V25.5z"/>
	<path class="st0" d="M76.8,13.3v5.1c0,1.6,0.4,2.1,1.8,2.1h0.6v5.1H77c-3.4,0-5.6-1.6-5.6-5.7v-6.6H68V8.7h3.3V1.9h5.5v6.7h3.5v4.6
		H76.8z"/>
	<path class="st0" d="M88.1,10.9L88.1,10.9c1.2-1.8,3.1-2.8,5.5-2.8c3.7,0,6.3,2.2,6.3,7v10.4h-5.5v-8.9c0-2.5-1.1-3.6-3.1-3.6
		c-1.9,0-3.2,1.1-3.2,4.1v8.5h-5.5V0h5.5V10.9z"/>
	<path class="st0" d="M120.2,8.7l-11.2,24.1h-5.5l4.2-8.9l-7.5-15.2h6.3l3.9,9.3l4.2-9.3H120.2z"/>
</g>
<path class="st1" d="M30.5,40.7v0.8h3.6v4.6h-3.6v12.2H25V46.1h-3v-4.6h3v-1c0-5.6,2.7-8.1,8.1-8.1h1.1v5.1h-0.5
	C31.4,37.5,30.5,38.2,30.5,40.7z"/>
<path class="st1" d="M53.9,49.9c0,5.4-4,9-9.5,9c-5.4,0-9.4-3.6-9.4-9c0-5.4,4-9,9.4-9C49.9,40.9,53.9,44.5,53.9,49.9z M40.5,49.9
	c0,2.4,1.7,3.9,3.9,3.9c2.2,0,3.9-1.5,3.9-3.9c0-2.4-1.7-3.9-3.9-3.9C42.2,46,40.5,47.5,40.5,49.9z"/>
<path class="st1" d="M74.3,49.9c0,5.4-4,9-9.5,9c-5.4,0-9.4-3.6-9.4-9c0-5.4,4-9,9.4-9C70.3,40.9,74.3,44.5,74.3,49.9z M60.9,49.9
	c0,2.4,1.7,3.9,3.9,3.9c2.2,0,3.9-1.5,3.9-3.9c0-2.4-1.7-3.9-3.9-3.9C62.7,46,60.9,47.5,60.9,49.9z"/>
<path class="st1" d="M75.9,49.9c0-5.9,3.6-9,8-9c2.7,0,4.4,1.1,5.5,2.8h0.1v-11h5.5v25.5h-5.5V56h-0.1c-1.1,1.7-2.8,2.8-5.5,2.8
	C79.5,58.9,75.9,55.8,75.9,49.9z M89.3,49.9c0-2.4-1.7-3.9-3.9-3.9c-2.2,0-3.9,1.5-3.9,3.9c0,2.4,1.7,3.9,3.9,3.9
	C87.6,53.8,89.3,52.3,89.3,49.9z"/>
</svg>
